<?xml version="1.0" encoding="UTF-8" standalone="no"?>
<!-- Created with Inkscape (http://www.inkscape.org/) -->

<svg
   version="1.1"
   id="svg1"
   width="512"
   height="512"
   viewBox="0 0 512 512"
   sodipodi:docname="Icon.svg"
   inkscape:version="1.4.3 (0d15f75, 2025-12-25)"
   inkscape:export-filename="icon.png"
   inkscape:export-xdpi="48"
   inkscape:export-ydpi="48"
   xmlns:inkscape="http://www.inkscape.org/namespaces/inkscape"
   xmlns:sodipodi="http://sodipodi.sourceforge.net/DTD/sodipodi-0.dtd"
   xmlns:xlink="http://www.w3.org/1999/xlink"
   xmlns="http://www.w3.org/2000/svg"
   xmlns:svg="http://www.w3.org/2000/svg">
  <defs
     id="defs1">
    <linearGradient
       id="linearGradient14"
       inkscape:collect="always">
      <stop
         style="stop-color:#ef5f2d;stop-opacity:1;"
         offset="0"
         id="stop14" />
      <stop
         style="stop-color:#ef9028;stop-opacity:1;"
         offset="1"
         id="stop15" />
    </linearGradient>
    <linearGradient
       id="linearGradient12"
       inkscape:collect="always">
      <stop
         style="stop-color:#ef9028;stop-opacity:1;"
         offset="0"
         id="stop12" />
      <stop
         style="stop-color:#ef5f2d;stop-opacity:1;"
         offset="1"
         id="stop13" />
    </linearGradient>
    <linearGradient
       id="linearGradient10"
       inkscape:collect="always">
      <stop
         style="stop-color:#2c72ad;stop-opacity:1;"
         offset="0"
         id="stop10" />
      <stop
         style="stop-color:#4cb7db;stop-opacity:1;"
         offset="1"
         id="stop11" />
    </linearGradient>
    <linearGradient
       id="linearGradient8"
       inkscape:collect="always">
      <stop
         style="stop-color:#2c72ad;stop-opacity:1;"
         offset="0"
         id="stop8" />
      <stop
         style="stop-color:#4cb7db;stop-opacity:1;"
         offset="1"
         id="stop9" />
    </linearGradient>
    <linearGradient
       inkscape:collect="always"
       xlink:href="#linearGradient8"
       id="linearGradient9"
       x1="0"
       y1="202.06288"
       x2="442.64209"
       y2="205.02769"
       gradientUnits="userSpaceOnUse" />
    <linearGradient
       inkscape:collect="always"
       xlink:href="#linearGradient10"
       id="linearGradient11"
       x1="410.96838"
       y1="512"
       x2="255.20178"
       y2="69.330956"
       gradientUnits="userSpaceOnUse" />
    <linearGradient
       inkscape:collect="always"
       xlink:href="#linearGradient12"
       id="linearGradient13"
       x1="372"
       y1="512"
       x2="318.57617"
       y2="48.167969"
       gradientUnits="userSpaceOnUse" />
    <linearGradient
       inkscape:collect="always"
       xlink:href="#linearGradient14"
       id="linearGradient15"
       x1="512"
       y1="512"
       x2="291.85611"
       y2="57.148575"
       gradientUnits="userSpaceOnUse" />
  </defs>
  <sodipodi:namedview
     id="namedview1"
     pagecolor="#ffffff"
     bordercolor="#000000"
     borderopacity="0.25"
     inkscape:showpageshadow="2"
     inkscape:pageopacity="0.0"
     inkscape:pagecheckerboard="0"
     inkscape:deskcolor="#d1d1d1"
     showgrid="false"
     inkscape:zoom="4"
     inkscape:cx="248.125"
     inkscape:cy="260.125"
     inkscape:window-width="3840"
     inkscape:window-height="2526"
     inkscape:window-x="3829"
     inkscape:window-y="-11"
     inkscape:window-maximized="1"
     inkscape:current-layer="g1" />
  <g
     inkscape:groupmode="layer"
     inkscape:label="Image"
     id="g1"
     transform="matrix(1,0,0,1.0031895,0,-1.6331036)">
    <path
       d="m 318.57617,48.167969 c -56.58565,15.782152 -84.33629,38.466015 -78.19922,103.494141 4.96971,52.6588 63.05176,72.95079 91.23633,91.95508 55.89515,37.68896 69.56576,65.19803 75.93359,103.94922 1.29422,7.87588 1.87566,15.24822 2.14454,22.39257 0.0829,2.20271 0.19849,4.42713 0.18945,6.5625 -0.006,1.51892 -0.0244,3.02838 -0.0762,4.51368 -0.11283,3.23583 -0.34681,6.37989 -0.66797,9.45898 -0.1176,1.12743 -0.18544,2.29166 -0.33008,3.39844 -0.53398,4.08627 -1.22981,8.04672 -2.11719,11.85742 -0.16682,0.7164 -0.3954,1.38298 -0.57422,2.08984 -0.77886,3.079 -1.65608,6.07729 -2.65429,8.97852 -0.40483,1.1766 -0.85164,2.31687 -1.29102,3.46484 -0.92912,2.42761 -1.92833,4.7937 -3.00586,7.09571 -0.50139,1.07116 -0.99318,2.14886 -1.52539,3.19336 -1.33311,2.61638 -2.76592,5.143 -4.2832,7.5957 -0.34531,0.55822 -0.65143,1.15126 -1.00586,1.70117 -1.85095,2.8717 -3.84509,5.60951 -5.93164,8.25977 -3.25994,4.14081 -6.83357,7.96991 -10.59961,11.59765 -0.85918,0.82766 -1.73631,1.62766 -2.61914,2.42969 -3.90908,3.55144 -7.96161,6.94365 -12.28125,10.01367 -0.0127,0.009 -0.0264,0.0164 -0.0391,0.0254 -3.85863,2.74048 -7.94802,5.15637 -12.06836,7.53906 -4.8871,2.82652 -9.91976,5.39683 -15.08008,7.75782 -1.20201,0.54998 -2.34131,1.19851 -3.55469,1.72461 -6.23988,2.70563 -12.60614,5.04405 -19.04101,7.16015 -10.12054,3.32912 -20.26753,5.8793 -30.30665,7.97461 -2.34118,0.48906 -4.53396,0.9126 -6.84765,1.34375 -5.85771,1.09278 -11.07901,1.76448 -16.66211,2.52539 -8.78381,1.2027 -16.76273,2.13697 -24.42188,2.69727 -3.70389,0.27327 -6.8432,0.57925 -10.1914,0.74023 -1.4454,0.0711 -3.32707,0.28836 -4.69922,0.3418 h 214.40039 c 13.23329,0 24.84058,-10.26373 24.85937,-28.96484 L 457.49219,256 h 40.36718 C 506.95006,256 512,248.01718 512,239.46484 c 0,-8.55234 -4.26063,-15.08109 -9.80664,-20.06836 L 441.07227,164.43359 V 68.646484 c 0,-9.404415 -2.60259,-14.10425 -10.94727,-13.683593 h -54.96289 c -7.15875,0 -9.80664,3.221208 -9.80664,11.859375 v 24.859375 c 0,0 -23.74936,-22.137407 -46.7793,-43.513672 z"
       style="display:inline;opacity:1;fill:url(#linearGradient15);fill-opacity:1;stroke:none;stroke-width:0;stroke-dasharray:none"
       id="path8"
       inkscape:label="House right" />
    <path
       d="m 256,1.5957031 c 0,0 -9.92061,0.2279885 -18.13086,6.8417969 C 229.6589,15.051309 9.1230469,220.30859 9.1230469,220.30859 9.1230469,220.30859 0,228.97517 0,238.09766 0,247.22016 4.5621458,256 13.228516,256 H 54.962891 V 483.49219 C 54.962891,500.00466 63.933208,512 80.277344,512 H 189.06445 c 0.001,-4e-4 86.89089,-23.49164 85.06641,-87.80469 C 272.30636,359.88173 189.20494,323.67662 141.62695,277.7793 117.22966,254.24383 104.31095,228.31282 108.55859,190.66016 126.29791,33.412344 318.57617,48.167969 318.57617,48.167969 298.95542,29.956088 279.8579,12.295054 276.41211,9.3496094 268.9218,2.9469367 265.00846,1.5957031 256,1.5957031 Z"
       style="display:inline;opacity:1;fill:url(#linearGradient9);stroke:none;stroke-width:0;stroke-dasharray:none"
       id="path5"
       inkscape:label="House left" />
    <path
       d="m 318.57617,48.167969 c 0,0 -109.03937,-2.950256 -145.24805,85.705081 -26.25653,64.28794 19.74273,99.86408 47.20899,119.73242 48.94637,35.40645 128.91215,68.16844 127.71484,147.09961 C 346.75063,499.67807 189.06846,511.99969 189.06445,512 c 0,0 11.02915,0.0727 21.20313,0 3.93251,-0.0612 7.60723,-0.10956 12.4375,-0.3418 3.13467,-0.1542 6.74882,-0.48839 10.1914,-0.74023 7.5222,-0.55499 15.81989,-1.52491 24.42188,-2.69727 5.48998,-0.7517 10.90774,-1.45308 16.66211,-2.52539 2.27445,-0.4243 4.54665,-0.86349 6.84765,-1.34375 10.01524,-2.09211 20.21076,-4.65459 30.30665,-7.97461 6.42655,-2.11399 12.80903,-4.4581 19.04101,-7.16015 1.21073,-0.52498 2.35529,-1.17585 3.55469,-1.72461 5.15562,-2.35898 10.19717,-4.93415 15.08008,-7.75782 8.74343,-5.05688 16.98026,-10.84777 24.38867,-17.57812 0.88157,-0.80092 1.76115,-1.60321 2.61914,-2.42969 3.76486,-3.62676 7.34055,-7.45813 10.59961,-11.59765 2.08631,-2.65006 4.08089,-5.38831 5.93164,-8.25977 0.35438,-0.54981 0.6606,-1.14305 1.00586,-1.70117 1.51688,-2.45214 2.9504,-4.97997 4.2832,-7.5957 0.53205,-1.0442 1.02415,-2.12251 1.52539,-3.19336 1.07728,-2.3015 2.07693,-4.66867 3.00586,-7.09571 0.4392,-1.14753 0.88635,-2.28869 1.29102,-3.46484 0.99812,-2.90099 1.87548,-5.89979 2.65429,-8.97852 0.17878,-0.70673 0.40743,-1.37357 0.57422,-2.08984 0.8873,-3.81032 1.58322,-7.7716 2.11719,-11.85742 0.14458,-1.10641 0.21252,-2.27139 0.33008,-3.39844 0.32117,-3.07907 0.55513,-6.22318 0.66797,-9.45898 0.0518,-1.48454 0.0697,-2.99556 0.0762,-4.51368 0.009,-2.13479 -0.10658,-4.3604 -0.18945,-6.5625 -0.26888,-7.14438 -0.85032,-14.51666 -2.14454,-22.39257 C 401.17907,308.81522 387.50846,281.30615 331.61331,243.61719 303.42874,224.6129 245.34669,204.32091 240.37698,151.66211 234.23991,86.633984 261.99055,63.950121 318.5762,48.167969 Z"
       style="display:inline;opacity:1;fill:url(#linearGradient13);fill-opacity:1;stroke:none;stroke-width:0;stroke-dasharray:none"
       id="path7"
       inkscape:label="Inside right" />
    <path
       d="m 318.57617,48.167969 c 0,0 -192.27826,-14.755625 -210.01758,142.492191 -4.24764,37.65266 8.67107,63.58367 33.06836,87.11914 47.57799,45.89732 130.67941,82.10243 132.50391,146.41601 1.82448,64.31305 -85.06494,87.80429 -85.06641,87.80469 0.004,-3.1e-4 157.68618,-12.32193 159.1875,-111.29492 C 349.44926,321.77391 269.48348,289.01192 220.53711,253.60547 193.07085,233.73713 147.07159,198.16099 173.32812,133.87305 209.5368,45.217713 318.57617,48.167969 318.57617,48.167969 Z"
       style="display:inline;opacity:1;fill:url(#linearGradient11);fill-opacity:1;stroke:none;stroke-width:0;stroke-dasharray:none"
       id="path6"
       inkscape:label="Inside left" />
  </g>
</svg>
